<svg viewBox="0 0 184 53" xmlns="http://www.w3.org/2000/svg" fill-rule="evenodd" clip-rule="evenodd" stroke-linejoin="round" stroke-miterlimit="1.414"><path d="M0 12.764c0-1.13 1.628-1.13 1.628 0v27.47c0 1.043-1.628 1.043-1.628 0v-27.47zm31.112.09a.776.776 0 0 1 .77-.7c.396 0 .731.305.769.7V40.1c0 1.086-.996 1.086-1.583.362L11.395 14.8v25.39a.751.751 0 0 1-.746.682.751.751 0 0 1-.746-.682V12.992c0-1.132.95-1.27 1.584-.453l19.625 25.66V12.855zm30.253-.677c2.214 0 2.214 3.123 0 3.123H51.279c0 8.146.044 16.428.044 24.575 0 1.13-.948 1.673-1.716 1.673-.77 0-1.63-.543-1.63-1.674V15.3H37.938c-2.126 0-2.126-3.123 0-3.123h23.427zm8.86 15.886h9.136c5.923 0 8.501-2.762 8.41-6.155-.043-3.713-3.164-6.699-8.41-6.699h-9.136v12.854zm0 2.85v8.78c0 2.081-3.3 2.081-3.3.047V13.76c0-.951.678-1.585 1.673-1.585h10.717c7.824 0 11.804 4.437 11.804 9.731 0 4.57-2.489 7.874-8.05 8.825l7.326 7.922c1.718 1.717-.77 3.71-2.26 2.17l-9.136-9.912h-8.774zm29.664 7.107h17.864c1.9 0 2.172 2.984 0 2.984h-19.04c-1.266 0-2.082-.904-2.082-1.99V14.165c0-1.04.816-1.944 2.082-1.944h19.086c1.944 0 1.855 2.897-.046 2.897H99.889V25.3h17.005c1.808 0 1.898 2.898 0 2.898H99.889v9.822zm46.034-24.712c0-1.902 3.437-1.99 3.437 0v25.977c0 2.264-3.121 2.49-4.064.906l-16.918-22.675.362 6.245V39.74c0 2.216-3.438 2.261-3.438 0V13.805c0-2.264 2.533-2.624 3.665-.951l17.409 23.308-.453-6.834v-16.02zm22.656 2.988l-7.146 14.255h14.25l-7.104-14.255zM160.075 33.4l-3.661 7.15c-.816 1.676-3.797.5-2.986-1.312l13.659-26.926c.27-.59.904-.862 1.492-.862s1.13.272 1.449.861l13.61 26.793c1.174 1.946-2.17 3.078-3.027 1.312l-3.529-7.016h-17.007z" fill="#fff" fill-rule="nonzero"/></svg>