<svg enable-background="new 0 0 48 48" height="48px" version="1.1" viewBox="0 0 48 48" width="48px" xml:space="preserve" xmlns="http://www.w3.org/2000/svg" xmlns:xlink="http://www.w3.org/1999/xlink"><g id="Expanded"><g><g><path d="M31,18H17V8h14V18z M19,16h10v-6H19V16z"></path></g><g><path d="M41,48H5V0h36V48z M7,46h32V2H7V46z"></path></g><g><rect height="2" width="5" x="40" y="13"></rect></g><g><rect height="2" width="5" x="40" y="21"></rect></g><g><rect height="2" width="5" x="40" y="29"></rect></g><g><path d="M42,39h-2v-2h2c1.103,0,2-0.897,2-2V9c0-1.103-0.897-2-2-2h-2V5h2c2.206,0,4,1.794,4,4v26C46,37.206,44.206,39,42,39z"></path></g><g><rect height="2" width="6" x="3" y="8"></rect></g><g><rect height="2" width="6" x="3" y="14"></rect></g><g><rect height="2" width="6" x="3" y="20"></rect></g><g><rect height="2" width="6" x="3" y="26"></rect></g><g><rect height="2" width="6" x="3" y="32"></rect></g><g><rect height="2" width="6" x="3" y="38"></rect></g></g></g></svg>